<?xml version="1.0" standalone="no"?>
<!DOCTYPE svg PUBLIC "-//W3C//DTD SVG 20010904//EN"
 "http://www.w3.org/TR/2001/REC-SVG-20010904/DTD/svg10.dtd">
<svg version="1.0" xmlns="http://www.w3.org/2000/svg"
 width="300.000000pt" height="300.000000pt" viewBox="0 0 300.000000 300.000000"
 preserveAspectRatio="xMidYMid meet">
<metadata>
Created by potrace 1.11, written by Peter Selinger 2001-2013
</metadata>
<g transform="translate(0.000000,300.000000) scale(0.100000,-0.100000)"
fill="#000000" stroke="none">
<path d="M0 2168 c1 -453 5 -843 10 -868 4 -25 11 -63 14 -85 4 -22 9 -48 12
-57 3 -9 7 -25 9 -36 9 -51 69 -212 106 -285 38 -77 129 -221 174 -277 54 -67
229 -231 301 -283 231 -163 496 -257 771 -273 l103 -6 0 121 c0 66 -3 121 -7
122 -5 0 -15 2 -23 4 -8 1 -32 5 -52 9 -210 34 -451 143 -625 283 -290 232
-476 557 -527 922 -9 64 -14 229 -15 515 -2 381 -4 421 -19 432 -62 44 -102
108 -102 163 0 117 100 217 208 206 137 -14 219 -146 168 -270 -20 -46 -52
-84 -83 -96 l-22 -8 1 -446 c1 -382 4 -458 19 -539 50 -264 167 -486 354 -671
191 -188 441 -316 693 -352 l32 -5 0 150 0 149 -68 7 c-320 32 -592 241 -694
535 -42 122 -42 120 -43 951 l-1 805 -347 3 -347 2 0 -822z"/>
<path d="M812 2848 l3 -143 355 -1 c327 -1 425 -5 505 -19 63 -12 191 -47 219
-61 16 -8 34 -14 39 -14 20 0 192 -92 266 -143 104 -71 264 -233 335 -341 95
-144 171 -323 195 -463 6 -32 13 -71 17 -88 4 -16 8 -326 9 -687 l3 -658 -265
0 -264 0 -47 -51 c-37 -40 -58 -54 -97 -63 -128 -33 -250 64 -244 194 8 169
211 250 330 132 20 -21 38 -44 41 -51 3 -12 37 -15 189 -16 101 -1 189 0 195
2 8 3 10 170 9 591 -2 323 -5 600 -8 616 -45 245 -153 458 -319 626 -78 78
-103 99 -191 157 -119 78 -286 147 -407 168 -19 3 -46 8 -60 11 -14 3 -202 6
-417 8 l-393 2 0 -128 0 -128 28 0 c15 -1 203 -2 417 -4 l390 -2 95 -32 c294
-97 503 -335 554 -627 8 -48 12 -206 12 -505 l-1 -435 -325 -2 c-179 -1 -331
-2 -337 -3 -10 0 -13 -76 -13 -345 l0 -345 686 1 685 0 -4 852 c-2 469 -7 863
-10 877 -3 14 -9 39 -12 55 -37 184 -112 366 -220 531 -66 101 -80 118 -184
225 -191 196 -421 331 -681 400 -41 11 -88 22 -105 25 -16 2 -55 8 -85 13 -30
5 -243 10 -473 10 l-418 2 3 -143z"/>
</g>
</svg>
